<?xml version="1.0" encoding="utf-8"?>
<!-- Designed by Vexels.com - 2016 All Rights Reserved - https://vexels.com/terms-and-conditions/  -->

<svg version="1.1" id="Layer_1" xmlns="http://www.w3.org/2000/svg" xmlns:xlink="http://www.w3.org/1999/xlink" x="0px" y="0px"
	 width="1200px" height="1200px" viewBox="0 0 1200 1200" enable-background="new 0 0 1200 1200" xml:space="preserve">
<g>
	<polygon fill="#1D1D1B" points="186.082,380.967 265.401,50 335.818,66.852 282.608,288.725 492.712,248.479 506.367,319.632 	"/>
	<path fill="#1D1D1B" d="M600.001,191.502c244.599,0,443.585,198.983,443.585,443.582c0,65.228-14.519,127-39.893,182.83
		l63.956,33.841c30.703-65.989,48.346-139.22,48.346-216.671c0-284.517-231.473-515.993-515.993-515.993
		c-154.368,0-292.727,68.49-387.385,176.232l56.035,45.873C349.993,249.612,468.154,191.502,600.001,191.502z"/>
	<path fill="#1D1D1B" d="M959.909,893.382c-25.743,35.768-57.1,67.002-92.077,93.772l40.601,59.83
		c41.258-31.069,78.229-67.547,108.615-109.34L959.909,893.382z"/>
	<path fill="#1D1D1B" d="M691.094,1141.956c49.221-8.973,96.255-24.172,139.589-46.066l-24.527-68.381
		c-38.856,20.569-81.37,34.744-125.973,42.979L691.094,1141.956z"/>
	<path fill="#1D1D1B" d="M435.693,1046.274l-26.946,66.825c52.989,21.224,109.994,34.414,169.855,36.901l12.332-71.782
		C536.141,1077.125,483.971,1065.584,435.693,1046.274z"/>
	<path fill="#1D1D1B" d="M260.649,918.415L202.1,960.781c33.953,41.163,73.449,77.557,118.421,106.674l46.436-55.926
		C326.557,986.444,291.103,954.608,260.649,918.415z"/>
	<g>
		<path fill="#1D1D1B" d="M160.022,687.843c-2.075-17.319-3.605-34.867-3.605-52.76c0-27.464,2.87-54.245,7.675-80.329
			l-72.872-1.952c-4.372,26.834-7.214,54.203-7.214,82.282c0,21.128,1.695,41.807,4.195,62.211L160.022,687.843z"/>
		<path fill="#1D1D1B" d="M170.567,743.372l-68.683,25.103c11.814,43.457,29.131,84.687,51.283,122.846l64.747-32.356
			C196.842,823.321,181.055,784.398,170.567,743.372z"/>
	</g>
</g>
</svg>
